<svg xmlns="http://www.w3.org/2000/svg" width="420.0mm" height="297.0mm" viewBox="0 0 420.0 297.0">
<g fill="none" stroke="#111" stroke-width="0.35">
<line x1="83.03859649122808" y1="163.34999950000002" x2="83.62807017543861" y2="163.34999950000002" />
<line x1="83.62807017543861" y1="163.34999950000002" x2="83.62807017543861" y2="163.34999950000002" />
<line x1="83.62807017543861" y1="163.34999950000002" x2="83.03859649122808" y2="163.34999950000002" />
<line x1="83.03859649122808" y1="163.34999950000002" x2="83.03859649122808" y2="163.34999950000002" />
<line x1="209.70526315789476" y1="163.05526315789476" x2="210.2947368421053" y2="163.05526315789476" />
<line x1="210.2947368421053" y1="163.05526315789476" x2="210.2947368421053" y2="163.6447368421053" />
<line x1="210.2947368421053" y1="163.6447368421053" x2="209.70526315789476" y2="163.6447368421053" />
<line x1="209.70526315789476" y1="163.6447368421053" x2="209.70526315789476" y2="163.05526315789476" />
<line x1="336.37192982456145" y1="163.34999950000002" x2="336.37192982456145" y2="163.34999950000002" />
<line x1="336.37192982456145" y1="163.34999950000002" x2="336.9614035087719" y2="163.34999950000002" />
<line x1="336.9614035087719" y1="163.34999950000002" x2="336.9614035087719" y2="163.34999950000002" />
<line x1="336.9614035087719" y1="163.34999950000002" x2="336.37192982456145" y2="163.34999950000002" />
</g>
<text x="20.0" y="20.0" font-size="5.0">DeepCAD Drawing</text>
<text x="20.0" y="35.0" font-size="2.5">UNSPECIFIED FILLET: R0.5</text>
<text x="20.0" y="41.0" font-size="2.5">UNSPECIFIED CHAMFER: C0.5x45deg</text>
<text x="20.0" y="47.0" font-size="2.5">GENERAL TOLERANCE: GB/T 1804-m</text>
<text x="20.0" y="53.0" font-size="2.5">SURFACE ROUGHNESS: Ra3.2</text>
<text x="320.0" y="275.0" font-size="2.5">SCALE: 1:1</text>
<text x="320.0" y="282.0" font-size="2.5">DWG NO: DC-0001</text>
</svg>